<svg xmlns="http://www.w3.org/2000/svg" version="1.0" width="500.000000pt" height="500.000000pt" viewBox="0 0 500.000000 500.000000" preserveAspectRatio="xMidYMid meet">

<g transform="translate(0.000000,500.000000) scale(0.100000,-0.100000)" fill="#ffffff" stroke="none">
<path d="M3435 4590 c-179 -26 -346 -111 -480 -245 -110 -109 -174 -212 -218 -350 -30 -95 -32 -108 -32 -255 0 -178 16 -254 84 -388 161 -321 516 -514 868 -471 106 13 256 66 354 125 123 74 242 204 308 336 130 259 131 528 4 783 -112 225 -336 400 -577 449 -97 20 -233 27 -311 16z m13 -176 c-14 -14 -34 -24 -44 -22 -15 3 -13 8 16 35 43 40 69 27 28 -13z m132 38 c0 -12 -178 -172 -191 -172 -24 0 1 33 79 104 74 68 112 91 112 68z m30 -61 c0 -14 -153 -151 -167 -151 -26 0 -11 20 65 89 72 66 102 84 102 62z m190 -10 c0 -7 -286 -274 -338 -315 -15 -12 -27 -15 -33 -9 -6 6 56 69 172 176 163 148 199 175 199 148z m-120 -20 c0 -10 -199 -191 -211 -191 -26 0 1 36 87 113 88 79 124 102 124 78z m135 -50 c6 -11 -284 -281 -302 -281 -7 0 -13 4 -13 9 0 11 290 280 302 281 4 0 9 -4 13 -9z m20 -89 c-11 -10 -72 -66 -136 -125 -64 -59 -122 -107 -128 -107 -29 0 2 36 128 150 96 88 136 119 144 111 8 -8 6 -16 -8 -29z m0 -91 c-114 -106 -166 -151 -175 -151 -26 0 -3 32 81 108 66 61 94 81 102 73 8 -8 6 -16 -8 -30z m19 -60 c7 -11 -91 -101 -110 -101 -25 0 -15 18 38 64 55 48 63 52 72 37z m26 -63 c0 -14 -59 -78 -72 -78 -17 0 -7 26 24 57 34 35 48 41 48 21z m190 -17 c0 -13 -252 -241 -267 -241 -27 0 -9 22 114 134 116 106 153 132 153 107z m80 -19 c0 -5 -73 -75 -161 -155 -145 -132 -189 -164 -189 -139 0 5 72 75 161 155 144 132 189 165 189 139z m-254 -58 c-29 -25 -43 -31 -50 -23 -8 8 0 20 28 45 29 25 43 31 50 23 8 -8 0 -20 -28 -45z m274 -8 c0 -17 -269 -266 -287 -266 -7 0 -13 4 -13 9 0 11 281 271 293 271 4 0 7 -6 7 -14z m15 -82 c0 -5 -51 -56 -113 -113 -75 -69 -116 -101 -123 -94 -10 10 12 33 166 176 46 43 70 54 70 31z m104 4 c-1 -16 -333 -318 -349 -318 -27 0 4 34 160 178 156 143 191 169 189 140z m-723 -19 c107 -51 124 -195 33 -273 -74 -63 -168 -57 -232 13 -58 64 -62 150 -10 212 60 70 130 87 209 48z m684 -107 c0 -7 -39 -46 -133 -132 -26 -24 -40 -31 -48 -23 -7 7 14 33 73 87 75 69 108 90 108 68z m10 -80 c0 -4 -22 -30 -50 -57 -38 -37 -53 -46 -61 -38 -9 9 0 23 37 57 46 42 74 57 74 38z" fill="#ffffff"/>
<path d="M720 3805 l0 -735 155 0 155 0 0 230 0 230 275 0 c296 0 345 6 441 51 101 48 171 135 210 264 26 84 26 296 0 380 -52 173 -162 272 -340 306 -27 5 -239 9 -472 9 l-424 0 0 -735z m840 438 c81 -40 119 -129 107 -248 -6 -60 -24 -99 -62 -138 -49 -48 -105 -57 -352 -57 l-223 0 0 236 0 236 243 -4 c226 -3 245 -4 287 -25z" fill="#ffffff"/>
<path d="M2869 2203 c-35 -19 -64 -43 -84 -71 l-30 -44 -3 -679 c-2 -659 -2 -680 17 -718 23 -44 71 -88 118 -108 26 -10 157 -13 670 -13 596 0 641 2 678 19 51 23 111 89 124 138 16 56 15 1293 -1 1345 -6 22 -29 59 -50 83 -68 77 -47 75 -758 75 l-626 0 -55 -27z m511 -238 l0 -35 -90 0 -90 0 0 -45 0 -45 65 0 65 0 0 -35 0 -35 -65 0 -65 0 0 -40 0 -40 90 0 90 0 0 -35 0 -35 -130 0 -130 0 0 190 0 190 130 0 130 0 0 -35z m638 -7 l3 -38 -80 0 c-44 0 -91 -4 -105 -10 -61 -23 -74 -137 -22 -189 24 -24 35 -26 116 -29 l90 -4 0 -34 0 -34 -101 0 c-123 0 -167 19 -199 85 -40 83 -17 220 44 261 39 25 82 33 171 31 l80 -2 3 -37z m-816 -775 l3 -78 78 -3 77 -3 0 81 0 80 40 0 40 0 0 -190 0 -190 -40 0 -40 0 0 75 0 75 -80 0 -80 0 0 -75 0 -75 -40 0 -40 0 0 183 c0 101 3 187 7 190 3 4 21 7 39 7 l33 0 3 -77z m677 67 c46 -13 99 -65 111 -110 36 -130 -28 -248 -144 -265 -84 -13 -173 32 -202 102 -22 52 -18 143 9 193 39 75 131 107 226 80z" fill="#ffffff"/>
<path d="M3751 1154 c-27 -35 -35 -82 -22 -132 13 -48 42 -72 86 -72 43 0 73 24 85 71 13 48 5 101 -22 134 -28 36 -98 36 -127 -1z" fill="#ffffff"/>
<path d="M700 1425 l0 -735 150 0 150 0 2 298 3 297 171 3 170 2 160 -300 159 -300 163 0 c89 0 162 2 162 5 0 2 -86 165 -191 362 -105 197 -191 363 -192 368 0 6 76 154 170 330 94 176 180 339 192 363 l21 42 -163 0 -164 0 -153 -287 c-84 -159 -157 -294 -163 -301 -7 -9 -51 -12 -176 -10 l-166 3 -3 298 -2 297 -150 0 -150 0 0 -735z" fill="#ffffff"/>
</g>
</svg>